<?xml version="1.0" encoding="UTF-8" standalone="no"?>
<svg
   xmlns:dc="http://purl.org/dc/elements/1.1/"
   xmlns:cc="http://creativecommons.org/ns#"
   xmlns:rdf="http://www.w3.org/1999/02/22-rdf-syntax-ns#"
   xmlns:svg="http://www.w3.org/2000/svg"
   xmlns="http://www.w3.org/2000/svg"
   xmlns:sodipodi="http://sodipodi.sourceforge.net/DTD/sodipodi-0.dtd"
   xmlns:inkscape="http://www.inkscape.org/namespaces/inkscape"
   width="24"
   height="24"
   viewBox="0 0 24 24"
   version="1.1"
   id="svg4"
   sodipodi:docname="iconmonstr-reddit-1.svg"
   inkscape:version="0.92.4 (5da689c313, 2019-01-14)">
  <metadata
     id="metadata10">
    <rdf:RDF>
      <cc:Work
         rdf:about="">
        <dc:format>image/svg+xml</dc:format>
        <dc:type
           rdf:resource="http://purl.org/dc/dcmitype/StillImage" />
      </cc:Work>
    </rdf:RDF>
  </metadata>
  <defs
     id="defs8" />
  <sodipodi:namedview
     pagecolor="#ffffff"
     bordercolor="#666666"
     borderopacity="1"
     objecttolerance="10"
     gridtolerance="10"
     guidetolerance="10"
     inkscape:pageopacity="0"
     inkscape:pageshadow="2"
     inkscape:window-width="2560"
     inkscape:window-height="1017"
     id="namedview6"
     showgrid="false"
     inkscape:zoom="27.812867"
     inkscape:cx="19.732612"
     inkscape:cy="11.741923"
     inkscape:window-x="-8"
     inkscape:window-y="-8"
     inkscape:window-maximized="1"
     inkscape:current-layer="svg4" />
  <path
     d="m 24.035955,11.779 c 0,-1.459 -1.192,-2.645 -2.657,-2.645 -0.715,0 -1.363,0.286 -1.84,0.746 -1.81,-1.191 -4.259,-1.949 -6.971,-2.046 l 1.483,-4.669 4.016,0.941 -0.006,0.058 c 0,1.193 0.975,2.163 2.174,2.163 1.198,0 2.172,-0.97 2.172,-2.163 0,-1.193 -0.975,-2.164 -2.172,-2.164 -0.92,0 -1.704,0.574 -2.021,1.379 l -4.329,-1.015 c -0.189,-0.046 -0.381,0.063 -0.44,0.249 l -1.654,5.207 C 8.9529546,7.854 6.3819546,8.618 4.4909546,9.845 c -0.474,-0.438 -1.103,-0.712 -1.799,-0.712 -1.465,0 -2.65600002,1.187 -2.65600002,2.646 0,0.97 0.533,1.811 1.31700002,2.271 -0.052,0.282 -0.086,0.567 -0.086,0.857 0,3.911 4.808,7.093 10.7190004,7.093 5.911,0 10.72,-3.182 10.72,-7.093 0,-0.274 -0.029,-0.544 -0.075,-0.81 0.832,-0.447 1.405,-1.312 1.405,-2.318 z M 6.8119546,13.595 c 0,-0.868 0.71,-1.575 1.582,-1.575 0.872,0 1.581,0.707 1.581,1.575 0,0.868 -0.709,1.574 -1.581,1.574 -0.872,0 -1.582,-0.706 -1.582,-1.574 z m 9.0610004,4.669 c -0.797,0.793 -2.048,1.179 -3.824,1.179 l -0.013,-0.003 -0.013,0.003 c -1.777,0 -3.0280004,-0.386 -3.8240004,-1.179 -0.145,-0.144 -0.145,-0.379 0,-0.523 0.145,-0.145 0.381,-0.145 0.526,0 0.65,0.647 1.7290004,0.961 3.2980004,0.961 l 0.013,0.003 0.013,-0.003 c 1.569,0 2.648,-0.315 3.298,-0.962 0.145,-0.145 0.381,-0.144 0.526,0 0.145,0.145 0.145,0.379 0,0.524 z m -0.189,-3.095 c -0.872,0 -1.581,-0.706 -1.581,-1.574 0,-0.868 0.709,-1.575 1.581,-1.575 0.872,0 1.581,0.707 1.581,1.575 0,0.868 -0.709,1.574 -1.581,1.574 z"
     id="path2"
     style="fill:#fafafa;fill-opacity:1"
     inkscape:connector-curvature="0" />
</svg>
