<?xml version="1.0" encoding="UTF-8" standalone="no"?>
<svg
   xmlns:dc="http://purl.org/dc/elements/1.1/"
   xmlns:cc="http://creativecommons.org/ns#"
   xmlns:rdf="http://www.w3.org/1999/02/22-rdf-syntax-ns#"
   xmlns:svg="http://www.w3.org/2000/svg"
   xmlns="http://www.w3.org/2000/svg"
   xmlns:sodipodi="http://sodipodi.sourceforge.net/DTD/sodipodi-0.dtd"
   xmlns:inkscape="http://www.inkscape.org/namespaces/inkscape"
   version="1.0"
   width="820pt"
   height="330pt"
   viewBox="0 0 820 330"
   preserveAspectRatio="xMidYMid meet"
   id="svg6"
   sodipodi:docname="mal-icon.svg"
   inkscape:version="0.92.4 (5da689c313, 2019-01-14)">
  <metadata
     id="metadata12">
    <rdf:RDF>
      <cc:Work
         rdf:about="">
        <dc:format>image/svg+xml</dc:format>
        <dc:type
           rdf:resource="http://purl.org/dc/dcmitype/StillImage" />
        <dc:title></dc:title>
      </cc:Work>
    </rdf:RDF>
  </metadata>
  <defs
     id="defs10" />
  <sodipodi:namedview
     pagecolor="#ffffff"
     bordercolor="#666666"
     borderopacity="1"
     objecttolerance="10"
     gridtolerance="10"
     guidetolerance="10"
     inkscape:pageopacity="0"
     inkscape:pageshadow="2"
     inkscape:window-width="2560"
     inkscape:window-height="1017"
     id="namedview8"
     showgrid="false"
     inkscape:zoom="1.0012632"
     inkscape:cx="350.26865"
     inkscape:cy="271.09427"
     inkscape:window-x="-8"
     inkscape:window-y="-8"
     inkscape:window-maximized="1"
     inkscape:current-layer="svg6" />
  <g
     transform="matrix(0.1,0,0,-0.1,0,330.00001)"
     id="g4"
     style="fill:#7c3333;fill-opacity:0;stroke:none">
    <path
       d="M 0,5000 V 0 h 5000 5000 v 5000 5000 H 5000 0 Z m 6505,1631 90,-6 90,-290 91,-290 -596,-6 c -665,-6 -648,-4 -805,-79 -189,-91 -306,-234 -385,-467 -16,-50 -30,-109 -30,-130 v -40 l 143,-6 c 78,-4 280,-7 450,-7 h 307 v 123 c 0,68 3,206 7,305 l 6,182 h 387 387 l 6,-502 c 4,-277 7,-758 7,-1071 v -567 l -397,2 -398,3 -3,483 -2,482 h -470 -470 v -22 c 0,-37 29,-195 60,-323 55,-230 135,-435 220,-563 28,-41 47,-79 43,-82 -12,-10 -532,-349 -555,-361 -17,-9 -25,3 -87,133 -257,537 -411,1126 -411,1574 0,680 308,1141 915,1369 198,74 481,132 755,154 126,10 519,11 645,2 z m 1483,-7 c 9,-3 12,-235 12,-1117 V 4393 l 523,-7 c 287,-4 523,-8 524,-9 0,-1 -31,-136 -70,-299 l -71,-298 h -813 -813 v 1430 1430 l 348,-6 c 191,-3 353,-7 360,-10 z M 2000,6190 c 173,-235 317,-426 320,-423 3,2 156,194 340,426 l 336,422 h 369 370 l 3,-1417 2,-1418 h -360 -360 l -2,875 -3,874 -335,-399 c -184,-219 -338,-399 -341,-400 -3,0 -154,183 -335,407 l -329,407 -6,-200 c -4,-109 -7,-506 -8,-881 l -1,-683 H 1300 940 v 1420 1420 l 373,-1 h 372 z"
       id="path2"
       style="fill:#7c3333;fill-opacity:0"
       inkscape:connector-curvature="0" />
  </g>
  <path
     style="opacity:0.98999999;fill:#fafafa;fill-opacity:1;stroke:none;stroke-width:1.06099021;stroke-linecap:round;stroke-linejoin:round;stroke-miterlimit:4;stroke-dasharray:none;stroke-opacity:0"
     d="M 7.5076547,147.75182 V 6.3323283 h 36.9602983 36.9603 L 97.123153,27.7836 c 25.927467,35.436833 47.023977,63.294493 47.932687,63.294493 0.47055,0 16.00707,-19.0678 34.52564,-42.372883 L 213.25155,6.3323283 h 36.42891 36.42888 l 0.0144,139.0360217 c 0.008,76.4698 0.30191,140.10857 0.65322,141.41948 l 0.63874,2.38347 h -36.13437 -36.13437 l -0.27096,-87.56155 -0.27095,-87.56156 -13.73126,16.32216 c -53.99863,64.18741 -53.72811,63.88743 -55.55205,61.60071 -0.9302,-1.16622 -15.72306,-19.35992 -32.87304,-40.43046 -23.387017,-28.73341 -31.403197,-37.9144 -32.067557,-36.72725 -0.48719,0.87054 -1.192,40.45723 -1.56624,87.97038 l -0.6804,86.38757 H 42.821083 7.5076547 Z"
     id="path822"
     inkscape:connector-curvature="0" />
  <path
     style="opacity:0.98999999;fill:#fafafa;fill-opacity:1;stroke:none;stroke-width:1.06099021;stroke-linecap:round;stroke-linejoin:round;stroke-miterlimit:4;stroke-dasharray:none;stroke-opacity:0"
     d="M 375.23345,316.99476 C 358.29198,283.23496 343.42328,238.58452 337.0421,202.3069 325.61279,137.33022 337.15497,87.153323 371.27786,53.47498 397.89127,27.20828 431.52383,13.736278 489.49917,6.1197483 c 10.80234,-1.4191599 80.81249,-1.9555099 82.1385,-0.6292699 0.77102,0.7711499 18.39383,56.2531946 18.01462,56.7155446 -0.11696,0.14261 -27.1087,0.69279 -59.98162,1.22261 -67.17263,1.08264 -65.45002,0.88693 -81.70683,9.28324 -16.92935,8.74366 -28.17378,22.583754 -35.41646,43.591927 -1.94576,5.64387 -3.54201,12.24958 -3.54721,14.67938 l -0.009,4.4178 6.62076,0.58398 c 3.64142,0.3212 24.02012,0.71666 45.28601,0.87882 l 38.66525,0.29482 0.65085,-29.66101 c 0.35797,-16.313567 0.71549,-30.018537 0.79449,-30.455517 0.079,-0.43697 17.22743,-0.79449 38.1076,-0.79449 h 37.96394 l 0.69968,37.341107 c 0.38482,20.5376 0.70041,68.44544 0.7013,106.46186 l 10e-4,69.12075 H 539.29783 500.1136 l -0.27552,-48.46398 -0.27552,-48.46398 -47.40466,-0.27574 -47.40466,-0.27573 v 3.1351 c 0,1.72429 0.98456,8.28377 2.1879,14.57658 6.10474,31.92427 14.22612,55.27998 25.91079,74.51502 2.02454,3.33275 3.67628,6.47388 3.67054,6.98029 -0.01,0.85903 -51.53042,34.86829 -54.6154,36.05211 -0.93728,0.35967 -3.1642,-2.96252 -6.67379,-9.95621 z"
     id="path824"
     inkscape:connector-curvature="0" />
  <path
     style="opacity:0.98999999;fill:#fafafa;fill-opacity:1;stroke:none;stroke-width:1.06099021;stroke-linecap:round;stroke-linejoin:round;stroke-miterlimit:4;stroke-dasharray:none;stroke-opacity:0"
     d="M 642.04154,146.58559 V 3.9866384 l 34.6928,0.76846 c 19.08105,0.42265 34.90058,0.9596099 35.1546,1.1932399 0.25395,0.23364 0.67418,50.4685847 0.93383,111.6332017 l 0.47205,111.20841 11.778,0.12455 c 43.35982,0.4585 90.63195,1.57169 91.2063,2.14776 0.3747,0.37584 -2.3472,13.48495 -6.04875,29.13135 l -6.73005,28.44803 -80.7294,0.27145 -80.72938,0.27145 z"
     id="path826"
     inkscape:connector-curvature="0" />
</svg>
