<?xml version="1.0" encoding="UTF-8"?>
<svg xmlns="http://www.w3.org/2000/svg" xmlns:xlink="http://www.w3.org/1999/xlink" width="64pt" height="64pt" viewBox="0 0 64 64" version="1.1">
<g id="surface9495916">
<path style=" stroke:none;fill-rule:nonzero;fill:rgb(98.039216%,98.039216%,98.039216%);fill-opacity:1;" d="M 16 8 C 20 10 24 16 24 22 C 20 16 6 16 0 22 C 6 22 14 28 16 36 C 10 36 6 38 4 42 C 10 42 12 42 14 44 C 10 44 8 50 8 50 C 11.046875 48.476562 15.214844 48.117188 17.046875 48.03125 C 17.808594 49.234375 18.902344 50.339844 20.371094 51.128906 C 20.480469 51.34375 21.410156 53.21875 23.246094 55.316406 C 25.183594 57.53125 28.109375 60 32 60 C 35.890625 60 38.816406 57.53125 40.753906 55.316406 C 42.589844 53.21875 43.519531 51.34375 43.628906 51.128906 C 44.699219 50.550781 45.574219 49.808594 46.265625 48.980469 C 49.882812 48.015625 56 48 56 48 C 56 48 54 46 50 46 C 50 42 58 40 62 40 C 62 40 60 36 52 38 C 52 36 58 32 64 32 C 62 30 54 28 48 30 C 48 26 44 22 40 22 C 36 10 28 8 16 8 Z M 38 30 C 38 30 39.542969 34.644531 38.550781 38.484375 L 34 40 L 34 42 C 34 43.105469 34.894531 44 36 44 C 37.105469 44 38 43.105469 38 42 L 38 41 L 42 40 L 40.292969 38.292969 C 42 36.953125 44 35.171875 44 34 C 46 38 42 42 42 42 C 42.632812 42.632812 43.464844 42.839844 44.308594 42.863281 C 44.3125 43.238281 44.304688 43.625 44.261719 44.027344 C 44.058594 45.855469 43.546875 47.375 41.367188 48.101562 L 40.582031 48.363281 L 40.210938 49.105469 C 40.210938 49.105469 39.308594 50.898438 37.746094 52.683594 C 36.183594 54.46875 34.109375 56 32 56 C 29.890625 56 27.816406 54.46875 26.253906 52.683594 C 24.691406 50.898438 23.789062 49.105469 23.789062 49.105469 L 23.417969 48.363281 L 22.632812 48.101562 C 20.453125 47.375 19.941406 45.855469 19.738281 44.027344 C 19.691406 43.589844 19.679688 43.160156 19.6875 42.757812 C 20.964844 42.511719 22 42 22 42 C 20 40 22 34 26 32 C 26 34.40625 27.410156 37.40625 28.5625 39.519531 L 24 38 L 22 40 L 26 41 L 26 42 C 26 43.105469 26.894531 44 28 44 C 29.105469 44 30 43.105469 30 42 C 30 36 38 30 38 30 Z M 28.820312 48.859375 C 28.820312 48.859375 28.816406 52 31.996094 52 C 35.175781 52 35.175781 48.859375 35.175781 48.859375 Z M 28.820312 48.859375 "/>
</g>
</svg>
