<?xml version="1.0" encoding="UTF-8" standalone="no"?>
<svg
   xmlns:dc="http://purl.org/dc/elements/1.1/"
   xmlns:cc="http://creativecommons.org/ns#"
   xmlns:rdf="http://www.w3.org/1999/02/22-rdf-syntax-ns#"
   xmlns:svg="http://www.w3.org/2000/svg"
   xmlns="http://www.w3.org/2000/svg"
   xmlns:sodipodi="http://sodipodi.sourceforge.net/DTD/sodipodi-0.dtd"
   xmlns:inkscape="http://www.inkscape.org/namespaces/inkscape"
   enable-background="new 0 0 100 100"
   height="80"
   id="Layer_1"
   version="1.1"
   viewBox="0 0 90 80"
   width="90"
   xml:space="preserve"
   sodipodi:docname="reddit-icon.svg"
   inkscape:version="0.92.4 (5da689c313, 2019-01-14)"><metadata
     id="metadata14"><rdf:RDF><cc:Work
         rdf:about=""><dc:format>image/svg+xml</dc:format><dc:type
           rdf:resource="http://purl.org/dc/dcmitype/StillImage" /><dc:title></dc:title></cc:Work></rdf:RDF></metadata><defs
     id="defs12" /><sodipodi:namedview
     pagecolor="#ffffff"
     bordercolor="#666666"
     borderopacity="1"
     objecttolerance="10"
     gridtolerance="10"
     guidetolerance="10"
     inkscape:pageopacity="0"
     inkscape:pageshadow="2"
     inkscape:window-width="2560"
     inkscape:window-height="1017"
     id="namedview10"
     showgrid="false"
     inkscape:zoom="6.675088"
     inkscape:cx="28.90938"
     inkscape:cy="52.011604"
     inkscape:window-x="-8"
     inkscape:window-y="-8"
     inkscape:window-maximized="1"
     inkscape:current-layer="Layer_1" /><g
     id="g7"
     style="fill:#fafafa;fill-opacity:1"
     transform="matrix(0.9400757,0,0,1,-1.7977291,-9.8128681)"><defs
       id="defs3"><rect
         height="100"
         id="SVGID_1_"
         width="100"
         x="0"
         y="0" /></defs><path
       d="m 69.348,53.348 c 0.232,0.595 0.338,1.207 0.338,1.816 0,1.227 -0.424,2.418 -1.135,3.391 -0.703,0.961 -1.699,1.707 -2.871,2.035 h 0.002 c -0.01,0.004 -0.02,0.004 -0.024,0.008 -0.005,0 -0.013,0.004 -0.017,0.004 -0.549,0.188 -1.111,0.275 -1.67,0.275 -1.308,0 -2.594,-0.473 -3.621,-1.275 -1.02,-0.801 -1.791,-1.95 -2.033,-3.315 h -0.002 c 0,-0.004 0,-0.009 -0.002,-0.015 0,-0.004 0,-0.008 -0.004,-0.014 h 0.004 c -0.076,-0.352 -0.114,-0.703 -0.114,-1.051 0,-1.181 0.401,-2.316 1.065,-3.254 0.662,-0.932 1.596,-1.672 2.688,-2.053 0.004,0 0.008,-0.002 0.008,-0.002 0.006,0 0.006,-0.005 0.011,-0.005 0.618,-0.229 1.271,-0.343 1.915,-0.343 1.177,0 2.335,0.356 3.312,1.009 0.965,0.642 1.748,1.582 2.141,2.75 0.004,0.009 0.004,0.015 0.008,0.021 0,0.008 0.004,0.012 0.008,0.018 z M 65.75,67.846 c -0.461,-0.299 -0.994,-0.479 -1.559,-0.479 -0.455,0 -0.928,0.13 -1.349,0.41 -3.977,2.372 -8.653,3.673 -13.297,3.673 -3.484,0 -6.946,-0.735 -10.084,-2.276 L 39.445,69.166 39.43,69.16 c -0.474,-0.193 -1.013,-0.604 -1.601,-0.996 -0.298,-0.192 -0.61,-0.386 -0.957,-0.527 -0.341,-0.146 -0.721,-0.247 -1.127,-0.247 -0.335,0 -0.688,0.075 -1.037,0.233 -0.018,0.007 -0.035,0.014 -0.052,0.021 h 0.002 c -0.548,0.209 -0.975,0.593 -1.25,1.045 -0.288,0.467 -0.429,1.01 -0.429,1.551 0,0.488 0.116,0.977 0.354,1.42 0.227,0.42 0.577,0.787 1.034,1.034 4.483,3.023 9.763,4.394 15.064,4.389 4.778,0 9.586,-1.106 13.866,-3.12 l 0.022,-0.014 0.021,-0.012 c 0.564,-0.334 1.314,-0.634 2.021,-1.07 0.35,-0.223 0.691,-0.48 0.984,-0.815 0.293,-0.333 0.528,-0.743 0.661,-1.229 v -0.002 c 0.056,-0.215 0.082,-0.424 0.082,-0.633 0,-0.397 -0.098,-0.774 -0.26,-1.113 -0.234,-0.513 -0.623,-0.93 -1.078,-1.229 M 34.268,60.572 c 0.008,0 0.019,0.003 0.027,0.008 0.573,0.209 1.162,0.312 1.746,0.312 1.457,0 2.873,-0.597 3.945,-1.569 1.071,-0.976 1.803,-2.355 1.803,-3.929 0,-0.041 0,-0.082 -0.001,-0.131 0.003,-0.07 0.005,-0.147 0.005,-0.227 0,-1.561 -0.723,-2.946 -1.783,-3.926 -1.064,-0.98 -2.476,-1.581 -3.939,-1.581 -0.39,0 -0.788,0.046 -1.178,0.137 -0.005,0 -0.01,0.002 -0.016,0.002 h -0.006 c -1.936,0.405 -3.635,1.842 -4.262,3.818 v 0.002 c 0,0.004 -0.002,0.008 -0.002,0.008 -0.18,0.541 -0.264,1.1 -0.264,1.653 0,1.21 0.401,2.39 1.091,3.36 0.684,0.954 1.651,1.704 2.813,2.056 0.008,0.002 0.013,0.003 0.021,0.007 M 94.982,46.449 v 0.008 C 94.997,46.654 95,46.85 95,47.045 c 0,2.186 -0.701,4.288 -1.871,6.071 -1.092,1.669 -2.598,3.065 -4.332,4.013 0.111,0.87 0.176,1.747 0.176,2.621 -0.002,4.707 -1.625,9.334 -4.451,13.042 v 0.002 h -0.006 c -5.225,6.95 -13.248,11.049 -21.35,13.116 h -0.002 l -0.006,0.005 c -4.32,1.049 -8.775,1.585 -13.229,1.585 -6.64,0 -13.273,-1.197 -19.464,-3.68 L 30.463,83.814 H 30.457 C 24.039,81.168 17.924,76.963 14.174,70.802 12.157,67.515 11.049,63.658 11.049,59.783 c 0,-0.877 0.059,-1.755 0.176,-2.623 C 9.537,56.209 8.074,54.86 6.987,53.25 5.829,51.521 5.093,49.495 5,47.353 V 47.345 47.337 47.32 c 0.002,-3 1.306,-5.842 3.33,-7.937 2.025,-2.095 4.791,-3.464 7.758,-3.464 h 0.123 c 0.311,-0.021 0.625,-0.033 0.939,-0.033 1.491,0 2.984,0.241 4.402,0.785 l 0.008,0.006 0.008,0.002 c 1.211,0.51 2.414,1.125 3.487,1.977 0.347,-0.182 0.727,-0.387 1.151,-0.549 6.5,-3.849 14.056,-5.334 21.418,-5.762 0.064,-3.648 0.513,-7.466 2.291,-10.808 1.482,-2.776 4.053,-4.938 7.115,-5.687 l 0.013,-0.006 0.017,-0.002 c 1.166,-0.226 2.342,-0.33 3.51,-0.33 3.111,0 6.186,0.737 9.062,1.887 1.273,-1.922 3.092,-3.422 5.225,-4.263 l 0.021,-0.012 0.021,-0.008 c 1.252,-0.39 2.574,-0.618 3.901,-0.618 1.4,0 2.812,0.256 4.134,0.847 V 13.34 c 0.002,0.005 0.004,0.005 0.004,0.005 0.01,0.003 0.018,0.009 0.024,0.009 1.896,0.73 3.5,2.079 4.638,3.756 1.139,1.684 1.809,3.701 1.809,5.775 0,0.382 -0.021,0.765 -0.066,1.148 l -0.004,0.008 c 0,0.006 0,0.014 -0.002,0.02 -0.223,2.68 -1.58,5.032 -3.502,6.709 -1.934,1.684 -4.438,2.701 -7.008,2.701 -0.412,0 -0.829,-0.023 -1.242,-0.078 -2.549,-0.195 -4.926,-1.428 -6.672,-3.263 -1.752,-1.832 -2.881,-4.28 -2.881,-6.922 0,-0.128 0.012,-0.259 0.016,-0.386 -2.393,-1.065 -4.934,-1.949 -7.459,-1.947 -0.365,0 -0.73,0.02 -1.096,0.057 h -0.004 c -1.891,0.182 -3.648,1.374 -4.5,3.088 v 0.002 0.006 c -1.293,2.518 -1.551,5.461 -1.59,8.383 7.248,0.473 14.539,2.212 20.934,5.888 h 0.01 l 0.092,0.054 c 0.121,0.072 0.346,0.195 0.549,0.303 0.439,-0.356 0.904,-0.723 1.435,-1.039 1.938,-1.291 4.235,-1.933 6.533,-1.933 1.02,0 2.041,0.13 3.03,0.384 h 0.004 l 0.041,0.012 c 0.014,0.002 0.025,0.007 0.037,0.007 v 0.002 c 2.34,0.595 4.457,1.939 6.051,3.751 1.594,1.815 2.664,4.111 2.873,6.604 v 0.005 H 94.982 Z M 73.633,22.729 c 0,0.098 0.002,0.199 0.012,0.301 v 0.006 0.012 c 0.047,1.259 0.642,2.431 1.545,3.297 0.908,0.866 2.113,1.402 3.336,1.407 h 0.017 0.017 c 0.088,0.007 0.178,0.007 0.264,0.007 1.234,0.002 2.459,-0.53 3.379,-1.393 0.922,-0.867 1.529,-2.046 1.578,-3.316 l 0.002,-0.006 v -0.008 c 0.008,-0.097 0.012,-0.189 0.012,-0.288 0,-1.307 -0.611,-2.553 -1.568,-3.476 -0.953,-0.922 -2.236,-1.493 -3.502,-1.49 -0.408,0 -0.812,0.056 -1.209,0.179 l -0.016,0.001 -0.012,0.005 c -1.043,0.271 -2.021,0.914 -2.723,1.768 -0.704,0.85 -1.132,1.901 -1.132,2.994 M 20.13,42.156 c -0.968,-0.451 -1.97,-0.773 -2.961,-0.769 -0.166,0 -0.334,0.01 -0.5,0.028 h -0.023 l -0.023,0.003 c -1.421,0.039 -2.857,0.659 -3.934,1.653 -1.078,0.99 -1.791,2.327 -1.846,3.801 v 0.014 l -0.002,0.012 c -0.01,0.119 -0.013,0.238 -0.013,0.352 0,0.909 0.278,1.788 0.751,2.588 0.351,0.595 0.81,1.139 1.329,1.611 1.662,-3.638 4.258,-6.726 7.222,-9.293 m 63.141,17.798 c 0,-3.243 -1.17,-6.501 -3.064,-9.124 C 76.43,45.574 70.57,42.146 64.475,40.235 L 64.432,40.22 c -1.17,-0.359 -2.352,-0.677 -3.543,-0.949 -3.562,-0.811 -7.215,-1.215 -10.863,-1.215 -4.9,0 -9.799,0.725 -14.489,2.172 -6.095,1.934 -11.974,5.338 -15.743,10.611 v 0.004 c -1.91,2.634 -3.028,5.902 -3.028,9.157 0,1.198 0.149,2.396 0.466,3.562 l 0.004,0.002 c 0.686,2.617 2.028,4.953 3.764,6.987 1.736,2.039 3.866,3.778 6.105,5.197 0.496,0.308 0.995,0.601 1.504,0.887 6.507,3.632 13.998,5.225 21.437,5.225 1.258,0 2.523,-0.046 3.773,-0.136 7.49,-0.619 15.012,-2.83 21.092,-7.348 l 0.002,-0.005 c 1.936,-1.43 3.729,-3.162 5.146,-5.132 1.424,-1.971 2.467,-4.173 2.93,-6.566 v -0.007 l 0.002,-0.002 c 0.189,-0.893 0.28,-1.8 0.28,-2.71 M 89.184,47.047 C 89.182,46.26 89.002,45.476 88.608,44.745 l -0.01,-0.009 -0.004,-0.012 C 88.067,43.638 87.239,42.818 86.24,42.259 85.242,41.696 84.074,41.41 82.902,41.41 c -1.06,0 -2.113,0.237 -3.049,0.707 2.975,2.583 5.584,5.687 7.271,9.34 0.543,-0.472 1.006,-1.05 1.353,-1.692 0.451,-0.841 0.707,-1.786 0.707,-2.718"
       id="path5"
       style="fill:#fafafa;fill-opacity:1"
       inkscape:connector-curvature="0" /></g></svg>